# xmcd
#
# Track frame offsets: 
#        150
#        12002
#        25162
#        37987
#        49377
#        64717
#        78890
#        92007
#        105045
#        118712
#        132840
#        146317
#        158695
#        173192
#        188035
#        202630
#        216947
#        241205
#        257997
#        270837
#        289495
#        302630
#
# Disc length: 4172 seconds
#
# Revision: 1
# Processed by: cddbd v1.5.2PL0 Copyright (c) Steve Scherf et al.
# Submitted via: ExactAudioCopy v0.95b4
#
DISCID=1c104a16
DTITLE=Various Artist - Slide Guitar: The Steamline Special
DYEAR=1998
DGENRE=Blues
TTITLE0=Taj Mahal - Country Blues #1
TTITLE1=Leadbelly - Packin' Trunk Blues
TTITLE2=Robert Johnson - Preachin' Blues
TTITLE3=Buddy Woods, Kitty Gray - Don't Sell It (Don't Give It Away)
TTITLE4=Casey Bill Weldon - Two Timin' Woman
TTITLE5=Blind Boy Fuller - Homesick and Lonesome Blues
TTITLE6=Bukka White - Special Streamline
TTITLE7=Sylvester Weaver - Bottleneck Blues
TTITLE8=Allen Shaw - Moanin' The Blues
TTITLE9=Charley Patton - High Sheriff Blues
TTITLE10=Georgia Cotton Pickers - Diddle-Da-Diddle
TTITLE11=The Georgia Bromwns - Decatur St.81
TTITLE12=Blind Willie McTell - Travelin' Blues
TTITLE13=Tampa Red and Georgia Tom - No Matter How She Done It
TTITLE14=Buddy Moss, Curley Weaver - Hard Times
TTITLE15=Blind Willie Johnson - You're Gonna Need Somebody On Your Bon
TTITLE15=d
TTITLE16=Son House - Preachin' Blues
TTITLE17=Muddy Waters - I Feel Like Going Home
TTITLE18=Jo-Ann Kelly - Come On In My Kitchen
TTITLE19=Shuggie Otis - I Can Stand To See You Die
TTITLE20=Michael Bloomfield And Friends - I Feel So Bad
TTITLE21=Keb' Mo' - Am I Wrong
EXTD=YEAR: 1998
EXTT0=
EXTT1=
EXTT2=
EXTT3=
EXTT4=
EXTT5=
EXTT6=
EXTT7=
EXTT8=
EXTT9=
EXTT10=
EXTT11=
EXTT12=
EXTT13=
EXTT14=
EXTT15=
EXTT16=
EXTT17=
EXTT18=
EXTT19=
EXTT20=
EXTT21=
PLAYORDER=
